<svg xmlns="http://www.w3.org/2000/svg" xmlns:xlink="http://www.w3.org/1999/xlink" viewBox="0 0 170 70">

<text x="20" y="8" font-size="6px" >Gehäuse Vorderseite</text>

<rect stroke="black" fill="none" stroke-width="1" x="1" y="10" rx="1" ry="1" width="160" height="55" stroke-linejoin="round" />

<line stroke="lightgrey" fill="none" stroke-width="1" x1="4" y1="37" x2="90" y2="37" stroke-dasharray="3 3" />
<line stroke="lightgrey" fill="none" stroke-width="1" x1="36" y1="18" x2="36" y2="59" stroke-dasharray="3 3" />
<line stroke="lightgrey" fill="none" stroke-width="1" x1="61" y1="18" x2="61" y2="59" stroke-dasharray="3 3" />

<circle stroke="black" fill="none" stroke-width="1" cx="36" cy="37" r="4"/>
<circle stroke="black" fill="none" stroke-width="1" cx="61" cy="37" r="8"/>

<text x="68" y="30" font-size="4px">16mm &#xD8;</text>

<text x="30" y="33" font-size="4px" text-anchor="end">8mm &#xD8;</text>

<path stroke="grey" fill="none" stroke-width="1" d="M2,49 l2,2 M2,49 l2,-2 M2,49 L35,49 l-2,2 M35,49 l-2,-2" stroke-linecap="round" stroke-linejoin="round"/>
<text x="21" y="54" font-size="4px" text-anchor="middle">35mm</text>

<path stroke="grey" fill="none" stroke-width="1" d="M37,49 l2,2 M37,49 l2,-2 M37,49 L60,49 l-2,2 M60,49 l-2,-2" stroke-linecap="round" stroke-linejoin="round"/>
<text x="49" y="54" font-size="4px" text-anchor="middle">25mm</text>

<path stroke="grey" fill="none" stroke-width="1" d="M75,38 l2,2 M75,38 l-2,2 M75,38 L75,64 l2,-2 M75,64 l-2,-2" stroke-linecap="round" stroke-linejoin="round"/>
<text x="78" y="54" font-size="4px" >28mm</text>

</svg>
