<svg xmlns="http://www.w3.org/2000/svg" xmlns:xlink="http://www.w3.org/1999/xlink" viewBox="0 0 520 40">

<text x="20" y="8" font-size="8px" >Oberer Aluwinkel, 20x20x3mm, 510mm, 2x</text>

<rect stroke="black" fill="gainsboro" stroke-width="1" x="5" y="15" width="510" height="20" stroke-linejoin="round" />
<rect stroke="black" fill="silver" stroke-width="1" x="5" y="15" width="510" height="3" stroke-linejoin="round" />

<line stroke="white" fill="none" stroke-width="1" x1="7" y1="25" x2="512" y2="25" stroke-dasharray="3 3" />
<line stroke="white" fill="none" stroke-width="1" x1="25" y1="18" x2="25" y2="33" stroke-dasharray="3 3" />
<line stroke="white" fill="none" stroke-width="1" x1="260" y1="18" x2="260" y2="33" stroke-dasharray="3 3" />
<line stroke="white" fill="none" stroke-width="1" x1="495" y1="18" x2="495" y2="33" stroke-dasharray="3 3" />

<circle stroke="black" fill="white" stroke-width="1" cx="25" cy="25" r="1.5"/>
<circle stroke="black" fill="white" stroke-width="1" cx="260" cy="25" r="1.5"/>
<circle stroke="black" fill="white" stroke-width="1" cx="495" cy="25" r="1.5"/>

<text x="263" y="31" font-size="4px">3,5mm &#xD8;</text>

<path stroke="grey" fill="none" stroke-width="1" d="M6,29 l1,1 M6,29 l1,-1 M6,29 L24,29 l-1,1 M24,29 l-1,-1" stroke-linecap="round" stroke-linejoin="round"/>
<text x="15" y="34" font-size="4px" text-anchor="middle">20mm</text>

<path stroke="grey" fill="none" stroke-width="1" d="M26,22 l1,1 M26,22 l1,-1 M26,22 L259,22 l-1,1 M259,22 l-1,-1" stroke-linecap="round" stroke-linejoin="round"/>
<text x="132" y="32" font-size="4px" text-anchor="middle">235mm</text>

<path stroke="grey" fill="none" stroke-width="1" d="M261,22 l1,1 M261,22 l1,-1 M261,22 L494,22 l-1,1 M494,22 l-1,-1" stroke-linecap="round" stroke-linejoin="round"/>
<text x="392" y="32" font-size="4px" text-anchor="middle">235mm</text>

<path stroke="grey" fill="none" stroke-width="1" d="M496,29 l1,1 M496,29 l1,-1 M496,29 L514,29 l-1,1 M514,29 l-1,-1" stroke-linecap="round" stroke-linejoin="round"/>
<text x="506" y="34" font-size="4px" text-anchor="middle">20mm</text>

<path stroke="grey" fill="none" stroke-width="1" d="M37,26 l1,1 M37,26 l-1,1 M37,26 L37,34 l1,-1 M37,34 l-1,-1" stroke-linecap="round" stroke-linejoin="round"/>
<text x="40" y="33" font-size="4px">10mm</text>

</svg>
