<svg xmlns="http://www.w3.org/2000/svg" xmlns:xlink="http://www.w3.org/1999/xlink" viewBox="0 0 510 80">

<text x="20" y="8" font-size="8px" >Unterer Aluwinkel, 20x20x3mm, 496mm, 2x</text>

<rect stroke="black" fill="gainsboro" stroke-width="1" x="5" y="15" width="496" height="20" stroke-linejoin="round" />
<rect stroke="black" fill="silver" stroke-width="1" x="5" y="15" width="496" height="3" stroke-linejoin="round" />

<line stroke="white" fill="none" stroke-width="1" x1="7" y1="25" x2="498" y2="25" stroke-dasharray="3 3" />
<line stroke="white" fill="none" stroke-width="1" x1="25" y1="18" x2="25" y2="33" stroke-dasharray="3 3" />
<line stroke="white" fill="none" stroke-width="1" x1="253" y1="18" x2="253" y2="33" stroke-dasharray="3 3" />
<line stroke="white" fill="none" stroke-width="1" x1="481" y1="18" x2="481" y2="33" stroke-dasharray="3 3" />

<circle stroke="black" fill="white" stroke-width="1" cx="25" cy="25" r="1.5"/>
<circle stroke="black" fill="white" stroke-width="1" cx="253" cy="25" r="1.5"/>
<circle stroke="black" fill="white" stroke-width="1" cx="481" cy="25" r="1.5"/>

<path stroke="grey" fill="none" stroke-width="1" d="M6,29 l1,1 M6,29 l1,-1 M6,29 L24,29 l-1,1 M24,29 l-1,-1" stroke-linecap="round" stroke-linejoin="round"/>
<text x="15" y="34" font-size="4px" text-anchor="middle">20mm</text>

<path stroke="grey" fill="none" stroke-width="1" d="M26,22 l1,1 M26,22 l1,-1 M26,22 L252,22 l-1,1 M252,22 l-1,-1" stroke-linecap="round" stroke-linejoin="round"/>
<text x="128" y="32" font-size="4px" text-anchor="middle">228mm</text>

<path stroke="grey" fill="none" stroke-width="1" d="M254,22 l1,1 M254,22 l1,-1 M254,22 L480,22 l-1,1 M480,22 l-1,-1" stroke-linecap="round" stroke-linejoin="round"/>
<text x="382" y="32" font-size="4px" text-anchor="middle">228mm</text>

<path stroke="grey" fill="none" stroke-width="1" d="M482,29 l1,1 M482,29 l1,-1 M482,29 L500,29 l-1,1 M500,29 l-1,-1" stroke-linecap="round" stroke-linejoin="round"/>
<text x="490" y="34" font-size="4px" text-anchor="middle">20mm</text>

<path stroke="grey" fill="none" stroke-width="1" d="M37,26 l1,1 M37,26 l-1,1 M37,26 L37,34 l1,-1 M37,34 l-1,-1" stroke-linecap="round" stroke-linejoin="round"/>
<text x="40" y="33" font-size="4px">10mm</text>


<text x="20" y="48" font-size="8px" >Unterer Aluwinkel, 20x20x3mm, 496mm, 1x, seitlicher 6mm Schlitz</text>

<rect stroke="black" fill="silver" stroke-width="1" x="5" y="55" width="496" height="20" stroke-linejoin="round" />
<rect stroke="black" fill="gainsboro" stroke-width="1" x="5" y="55" width="496" height="3" stroke-linejoin="round" />

<line stroke="white" fill="none" stroke-width="1" x1="70" y1="65" x2="100" y2="65" stroke-dasharray="3 3" />
<line stroke="white" fill="none" stroke-width="1" x1="85" y1="57" x2="85" y2="73" stroke-dasharray="3 3" />

<path stroke="black" fill="white" stroke-width="1" d="M82,75 l0,-10 a3,3,0 0 1 6,0 l0,10 Z" stroke-linecap="round" stroke-linejoin="round"/>

<path stroke="grey" fill="none" stroke-width="1" d="M95,66 l1,1 M95,66 l-1,1 M95,66 L95,74 l1,-1 M95,74 l-1,-1" stroke-linecap="round" stroke-linejoin="round"/>
<text x="99" y="73" font-size="4px">10mm</text>

<path stroke="grey" fill="none" stroke-width="1" d="M6,60 l1,1 M6,60 l1,-1 M6,60 L84,60 l-1,1 M84,60 l-1,-1" stroke-linecap="round" stroke-linejoin="round"/>
<text x="44" y="66" font-size="4px" text-anchor="middle">80mm</text>

</svg>
