<svg xmlns="http://www.w3.org/2000/svg" xmlns:xlink="http://www.w3.org/1999/xlink" viewBox="0 0 560 470">

<text x="20" y="8" font-size="8px" >Brett 550x450x15mm, 2x</text>

<rect stroke="black" fill="none" stroke-width="1" x="5" y="15" width="550" height="450" stroke-linejoin="round" />

<line stroke="lightgrey" fill="none" stroke-width="1" x1="37" y1="67" x2="77" y2="67" stroke-dasharray="3 3" />
<line stroke="lightgrey" fill="none" stroke-width="1" x1="57" y1="47" x2="57" y2="87" stroke-dasharray="3 3" />

<line stroke="lightgrey" fill="none" stroke-width="1" x1="30" y1="293" x2="85" y2="293" stroke-dasharray="3 3" />
<line stroke="lightgrey" fill="none" stroke-width="1" x1="47" y1="273" x2="47" y2="313" stroke-dasharray="3 3" />
<line stroke="lightgrey" fill="none" stroke-width="1" x1="62" y1="273" x2="62" y2="313" stroke-dasharray="3 3" />

<line stroke="lightgrey" fill="none" stroke-width="1" x1="37" y1="413" x2="77" y2="413" stroke-dasharray="3 3" />
<line stroke="lightgrey" fill="none" stroke-width="1" x1="57" y1="393" x2="57" y2="433" stroke-dasharray="3 3" />

<line stroke="lightgrey" fill="none" stroke-width="1" x1="483" y1="67" x2="523" y2="67" stroke-dasharray="3 3" />
<line stroke="lightgrey" fill="none" stroke-width="1" x1="503" y1="47" x2="503" y2="87" stroke-dasharray="3 3" />

<line stroke="lightgrey" fill="none" stroke-width="1" x1="475" y1="187" x2="530" y2="187" stroke-dasharray="3 3" />
<line stroke="lightgrey" fill="none" stroke-width="1" x1="498" y1="167" x2="498" y2="207" stroke-dasharray="3 3" />
<line stroke="lightgrey" fill="none" stroke-width="1" x1="513" y1="167" x2="513" y2="207" stroke-dasharray="3 3" />

<line stroke="lightgrey" fill="none" stroke-width="1" x1="483" y1="413" x2="523" y2="413" stroke-dasharray="3 3" />
<line stroke="lightgrey" fill="none" stroke-width="1" x1="503" y1="393" x2="503" y2="433" stroke-dasharray="3 3" />

<circle stroke="black" fill="white" stroke-width="1" cx="57" cy="67" r="4"/>
<circle stroke="black" fill="white" stroke-width="1" cx="47" cy="293" r="7"/>
<circle stroke="black" fill="white" stroke-width="1" cx="62" cy="293" r="7"/>
<circle stroke="black" fill="white" stroke-width="1" cx="57" cy="413" r="4"/>

<circle stroke="black" fill="white" stroke-width="1" cx="503" cy="67" r="4"/>
<circle stroke="black" fill="white" stroke-width="1" cx="513" cy="187" r="7"/>
<circle stroke="black" fill="white" stroke-width="1" cx="498" cy="187" r="7"/>
<circle stroke="black" fill="white" stroke-width="1" cx="503" cy="413" r="4"/>

<text x="65" y="78" font-size="4px">8mm &#xD8; (nur unten!)</text>

<path stroke="grey" fill="none" stroke-width="1" d="M6,75 l1,1 M6,75 l1,-1 M6,75 L56,75 l-1,1 M56,75 l-1,-1" stroke-linecap="round" stroke-linejoin="round"/>
<text x="33" y="82" font-size="4px" text-anchor="middle">52mm</text>

<path stroke="grey" fill="none" stroke-width="1" d="M65,16 l1,1 M65,16 l-1,1 M65,16 L65,66 l1,-1 M65,66 l-1,-1" stroke-linecap="round" stroke-linejoin="round"/>
<text x="69" y="41" font-size="4px">52mm</text>

<text x="69" y="286" font-size="4px">14mm &#xD8;</text>

<path stroke="grey" fill="none" stroke-width="1" d="M6,282 l1,1 M6,282 l1,-1 M6,282 L46,282 l-1,1 M46,282 l-1,-1" stroke-linecap="round" stroke-linejoin="round"/>
<text x="26" y="278" font-size="4px" text-anchor="middle">42mm</text>

<path stroke="grey" fill="none" stroke-width="1" d="M6,305 l1,1 M6,305 l1,-1 M6,305 L61,305 l-1,1 M61,305 l-1,-1" stroke-linecap="round" stroke-linejoin="round"/>
<text x="28" y="312" font-size="4px" text-anchor="middle">57mm</text>

<path stroke="grey" fill="none" stroke-width="1" d="M70,294 l1,1 M70,294 l-1,1 M70,294 L70,464 l1,-1 M70,464 l-1,-1" stroke-linecap="round" stroke-linejoin="round"/>
<text x="74" y="388" font-size="4px">172mm</text>

<!--

<path stroke="black" fill="none" stroke-width="1" d="M6,29 l1,1 M6,29 l1,-1 M6,29 L24,29 l-1,1 M24,29 l-1,-1" stroke-linecap="round" stroke-linejoin="round"/>
<text x="15" y="34" font-size="4px" text-anchor="middle">20mm</text>

<path stroke="black" fill="none" stroke-width="1" d="M26,22 l1,1 M26,22 l1,-1 M26,22 L252,22 l-1,1 M252,22 l-1,-1" stroke-linecap="round" stroke-linejoin="round"/>
<text x="128" y="32" font-size="4px" text-anchor="middle">228mm</text>

<path stroke="black" fill="none" stroke-width="1" d="M254,22 l1,1 M254,22 l1,-1 M254,22 L480,22 l-1,1 M480,22 l-1,-1" stroke-linecap="round" stroke-linejoin="round"/>
<text x="382" y="32" font-size="4px" text-anchor="middle">228mm</text>

<path stroke="black" fill="none" stroke-width="1" d="M482,29 l1,1 M482,29 l1,-1 M482,29 L500,29 l-1,1 M500,29 l-1,-1" stroke-linecap="round" stroke-linejoin="round"/>
<text x="490" y="34" font-size="4px" text-anchor="middle">20mm</text>

<path stroke="black" fill="none" stroke-width="1" d="M37,26 l1,1 M37,26 l-1,1 M37,26 L37,34 l1,-1 M37,34 l-1,-1" stroke-linecap="round" stroke-linejoin="round"/>
<text x="40" y="33" font-size="4px">10mm</text>


<text x="20" y="48" font-size="8px" >Unterer Aluwinkel, 20x20x3mm, 496mm, 1x, seitlicher 6mm Schlitz</text>

<rect stroke="black" fill="grey" stroke-width="1" x="5" y="55" width="496" height="20" stroke-linejoin="round" />
<rect stroke="black" fill="lightgrey" stroke-width="1" x="5" y="55" width="496" height="3" stroke-linejoin="round" />

<path stroke="black" fill="white" stroke-width="1" d="M82,75 l0,-10 a3,3,0 0 1 6,0 l0,10 Z" stroke-linecap="round" stroke-linejoin="round"/>

<line stroke="lightgrey" fill="none" stroke-width="1" x1="70" y1="65" x2="100" y2="65" stroke-dasharray="3 3" />
<line stroke="lightgrey" fill="none" stroke-width="1" x1="85" y1="57" x2="85" y2="73" stroke-dasharray="3 3" />

<path stroke="black" fill="none" stroke-width="1" d="M95,66 l1,1 M95,66 l-1,1 M95,66 L95,74 l1,-1 M95,74 l-1,-1" stroke-linecap="round" stroke-linejoin="round"/>
<text x="99" y="73" font-size="4px">10mm</text>

<path stroke="black" fill="none" stroke-width="1" d="M6,60 l1,1 M6,60 l1,-1 M6,60 L84,60 l-1,1 M84,60 l-1,-1" stroke-linecap="round" stroke-linejoin="round"/>
<text x="44" y="66" font-size="4px" text-anchor="middle">80mm</text>
-->
</svg>
