<svg xmlns="http://www.w3.org/2000/svg" xmlns:xlink="http://www.w3.org/1999/xlink" viewBox="0 0 510 40">

<text x="20" y="8" font-size="8px" >2 Stück oberer Winkel, 20x20x2mm, 500mm, 3x 3,5mm Bohrungen</text>

<rect stroke="black" fill="gainsboro" stroke-width="1" x="5" y="15" width="500" height="20" stroke-linejoin="round" />
<rect stroke="black" fill="silver" stroke-width="1" x="5" y="15" width="500" height="2" stroke-linejoin="round" />

<line stroke="grey" fill="none" stroke-width="1" x1="7" y1="25" x2="502" y2="25" stroke-dasharray="3 3" />
<line stroke="grey" fill="none" stroke-width="1" x1="25" y1="18" x2="25" y2="33" stroke-dasharray="3 3" />
<line stroke="grey" fill="none" stroke-width="1" x1="255" y1="18" x2="255" y2="33" stroke-dasharray="3 3" />
<line stroke="grey" fill="none" stroke-width="1" x1="485" y1="18" x2="485" y2="33" stroke-dasharray="3 3" />

<circle stroke="black" fill="white" stroke-width="1" cx="25" cy="25" r="1.5"/>
<circle stroke="black" fill="white" stroke-width="1" cx="255" cy="25" r="1.5"/>
<circle stroke="black" fill="white" stroke-width="1" cx="485" cy="25" r="1.5"/>

<text x="258" y="31" font-size="4px">3,5mm &#xD8;</text>

<path stroke="grey" fill="none" stroke-width="1" d="M6,29 l1,1 m0,-2 l-1,1 l18,0 l-1,1 m0,-2 l1,1" stroke-linecap="round" stroke-linejoin="round"/>
<text x="15" y="34" font-size="4px" text-anchor="middle">20mm</text>

<path stroke="grey" fill="none" stroke-width="1" d="M26,21 l1,1 m0,-2 l-1,1 l228,0 l-1,1 m0,-2 l1,1" stroke-linecap="round" stroke-linejoin="round"/>
<text x="127" y="31" font-size="4px" text-anchor="middle">230mm</text>

<path stroke="grey" fill="none" stroke-width="1" d="M256,21 l1,1 m0,-2 l-1,1 l228,0 l-1,1 m0,-2 l1,1" stroke-linecap="round" stroke-linejoin="round"/>
<text x="382" y="31" font-size="4px" text-anchor="middle">230mm</text>

<path stroke="grey" fill="none" stroke-width="1" d="M486,29 l1,1 m0,-2 l-1,1 l18,0 l-1,1 m0,-2 l1,1" stroke-linecap="round" stroke-linejoin="round"/>
<text x="496" y="34" font-size="4px" text-anchor="middle">20mm</text>

<path stroke="grey" fill="none" stroke-width="1" d="M37,26 l1,1 m-2,0 l1,-1 l0,8 l1,-1 m-2,0 l1,1" stroke-linecap="round" stroke-linejoin="round"/>
<text x="40" y="33" font-size="4px">10mm</text>

</svg>
