<svg xmlns="http://www.w3.org/2000/svg" xmlns:xlink="http://www.w3.org/1999/xlink" viewBox="0 0 410 40">

<text x="20" y="8" font-size="8px" >2 Stück oberer Winkel, 20x20x3mm, 400mm, 3x 3,5mm Bohrungen</text>

<rect stroke="black" fill="gainsboro" stroke-width="1" x="5" y="15" width="400" height="20" stroke-linejoin="round" />
<rect stroke="black" fill="silver" stroke-width="1" x="5" y="15" width="400" height="3" stroke-linejoin="round" />

<line stroke="grey" fill="none" stroke-width="1" x1="7" y1="25" x2="404" y2="25" stroke-dasharray="3 3" />
<line stroke="grey" fill="none" stroke-width="1" x1="33" y1="18" x2="33" y2="33" stroke-dasharray="3 3" />
<line stroke="grey" fill="none" stroke-width="1" x1="205" y1="18" x2="205" y2="33" stroke-dasharray="3 3" />
<line stroke="grey" fill="none" stroke-width="1" x1="377" y1="18" x2="377" y2="33" stroke-dasharray="3 3" />

<circle stroke="black" fill="white" stroke-width="1" cx="33" cy="25" r="1.75"/>
<circle stroke="black" fill="white" stroke-width="1" cx="205" cy="25" r="1.75"/>
<circle stroke="black" fill="white" stroke-width="1" cx="377" cy="25" r="1.75"/>

<text x="208" y="31" font-size="4px">3,5mm &#xD8;</text>

<path stroke="grey" fill="none" stroke-width="1" d="M6,29 l1,1 m0,-2 l-1,1 l26,0 l-1,1 m0,-2 l1,1" stroke-linecap="round" stroke-linejoin="round"/>
<text x="19" y="34" font-size="4px" text-anchor="middle">28mm</text>

<path stroke="grey" fill="none" stroke-width="1" d="M34,21 l1,1 m0,-2 l-1,1 l170,0 l-1,1 m0,-2 l1,1" stroke-linecap="round" stroke-linejoin="round"/>
<text x="177" y="31" font-size="4px" text-anchor="middle">172mm</text>

<path stroke="grey" fill="none" stroke-width="1" d="M206,21 l1,1 m0,-2 l-1,1 l170,0 l-1,1 m0,-2 l1,1" stroke-linecap="round" stroke-linejoin="round"/>
<text x="302" y="31" font-size="4px" text-anchor="middle">172mm</text>

<path stroke="grey" fill="none" stroke-width="1" d="M378,29 l1,1 m0,-2 l-1,1 l26,0 l-1,1 m0,-2 l1,1" stroke-linecap="round" stroke-linejoin="round"/>
<text x="392" y="34" font-size="4px" text-anchor="middle">28mm</text>

<path stroke="grey" fill="none" stroke-width="1" d="M45,26 l1,1 m-2,0 l1,-1 l0,8 l1,-1 m-2,0 l1,1" stroke-linecap="round" stroke-linejoin="round"/>
<text x="48" y="33" font-size="4px">10mm</text>

</svg>
